<svg aria-hidden="true" style="position: absolute; width: 0; height: 0; overflow: hidden;" version="1.1" xmlns="http://www.w3.org/2000/svg" xmlns:xlink="http://www.w3.org/1999/xlink">
  <defs>
    <symbol id="close" viewBox="0 0 24 24" fill="none">
      <rect width="24" height="24" fill="white"/>
      <path d="M7 17L16.8995 7.10051" stroke="#000000" stroke-linecap="round" stroke-linejoin="round"/>
      <path d="M7 7.00001L16.8995 16.8995" stroke="#000000" stroke-linecap="round" stroke-linejoin="round"/>
    </symbol>
    <symbol id="cart" viewBox="0 0 32 32">
      <g id="icomoon-ignore"></g>
      <path d="M30.622 9.602h-22.407l-1.809-7.464h-5.027v1.066h4.188l5.198 21.443c-1.108 0.323-1.923 1.334-1.923 2.547 0 1.472 1.193 2.666 2.666 2.666s2.666-1.194 2.666-2.666c0-0.603-0.208-1.153-0.545-1.599h7.487c-0.337 0.446-0.545 0.997-0.545 1.599 0 1.472 1.193 2.666 2.665 2.666s2.666-1.194 2.666-2.666c0-1.473-1.193-2.665-2.666-2.666v0h-11.403l-0.517-2.133h14.968l4.337-12.795zM13.107 27.196c0 0.882-0.717 1.599-1.599 1.599s-1.599-0.717-1.599-1.599c0-0.882 0.717-1.599 1.599-1.599s1.599 0.718 1.599 1.599zM24.836 27.196c0 0.882-0.718 1.599-1.6 1.599s-1.599-0.717-1.599-1.599c0-0.882 0.717-1.599 1.599-1.599 0.882 0 1.6 0.718 1.6 1.599zM11.058 21.331l-2.585-10.662h20.662l-3.615 10.662h-14.462z" fill="#000000"></path>
    </symbol>
    <symbol id="eye" viewBox="0 0 24 24" fill="none">
      <g clip-path="url(#clip0_15_200)">
      <rect width="24" height="24" fill="white"/>
      <circle cx="12" cy="13" r="2" stroke="#000000" stroke-linejoin="round"/>
      <path d="M12 7.5C7.69517 7.5 4.47617 11.0833 3.39473 12.4653C3.14595 12.7832 3.14595 13.2168 3.39473 13.5347C4.47617 14.9167 7.69517 18.5 12 18.5C16.3048 18.5 19.5238 14.9167 20.6053 13.5347C20.8541 13.2168 20.8541 12.7832 20.6053 12.4653C19.5238 11.0833 16.3048 7.5 12 7.5Z" stroke="#000000" stroke-linecap="round" stroke-linejoin="round"/>
      </g>
      <defs>
      <clipPath id="clip0_15_200">
      <rect width="24" height="24" fill="white"/>
      </clipPath>
      </defs>
    </symbol>
    <symbol id="pen" viewBox="0 0 24 24" fill="none">
      <rect width="24" height="24" fill="white"/>
      <path d="M15.6287 5.12132L4.31497 16.435M15.6287 5.12132L19.1642 8.65685M15.6287 5.12132L17.0429 3.70711C17.4334 3.31658 18.0666 3.31658 18.4571 3.70711L20.5784 5.82843C20.969 6.21895 20.969 6.85212 20.5784 7.24264L19.1642 8.65685M7.85051 19.9706L4.31497 16.435M7.85051 19.9706L19.1642 8.65685M7.85051 19.9706L3.25431 21.0312L4.31497 16.435" stroke="#000000" stroke-linecap="round" stroke-linejoin="round"/>
    </symbol>
    <symbol id="plus" viewBox="0 0 24 24" fill="none">
      <rect width="24" height="24" fill="white"/>
      <path d="M12 6V18" stroke="#000000" stroke-linecap="round" stroke-linejoin="round"/>
      <path d="M6 12H18" stroke="#000000" stroke-linecap="round" stroke-linejoin="round"/>
    </symbol>
    <symbol id="basket" viewBox="0 0 24 24" fill="none">
      <rect width="24" height="24" fill="white"/>
      <path d="M9 9H5.18046C4.56252 9 4.09248 9.55487 4.19407 10.1644L5.86073 20.1644C5.9411 20.6466 6.35829 21 6.84713 21H17.1529C17.6417 21 18.0589 20.6466 18.1393 20.1644L19.8059 10.1644C19.9075 9.55487 19.4375 9 18.8195 9H15M9 9H15M9 9L8 4H16L15 9" stroke="#000000" stroke-linejoin="round"/>
      <path d="M16.5 11L15 19" stroke="#000000" stroke-linecap="round" stroke-linejoin="round"/>
      <path d="M7.5 11L9 19" stroke="#000000" stroke-linecap="round" stroke-linejoin="round"/>
      <path d="M12 11V19" stroke="#000000" stroke-linecap="round" stroke-linejoin="round"/>
    </symbol>
    <symbol id="trash" viewBox="0 0 24 24" fill="none">
      <rect width="24" height="24" fill="white"/>
      <path d="M5 7.5H19L18 21H6L5 7.5Z" stroke="#000000" stroke-linejoin="round"/>
      <path d="M15.5 9.5L15 19" stroke="#000000" stroke-linecap="round" stroke-linejoin="round"/>
      <path d="M12 9.5V19" stroke="#000000" stroke-linecap="round" stroke-linejoin="round"/>
      <path d="M8.5 9.5L9 19" stroke="#000000" stroke-linecap="round" stroke-linejoin="round"/>
      <path d="M16 5H19C20.1046 5 21 5.89543 21 7V7.5H3V7C3 5.89543 3.89543 5 5 5H8M16 5L15 3H9L8 5M16 5H8" stroke="#000000" stroke-linejoin="round"/>
    </symbol>
    <symbol id="settings" viewBox="0 0 24 24" fill="none">
      <rect width="24" height="24" fill="white"/>
      <path d="M13.5 2L13.9961 1.93798C13.9649 1.68777 13.7522 1.5 13.5 1.5V2ZM10.5 2V1.5C10.2478 1.5 10.0351 1.68777 10.0039 1.93798L10.5 2ZM13.7747 4.19754L13.2786 4.25955C13.3047 4.46849 13.4589 4.63867 13.6642 4.68519L13.7747 4.19754ZM16.2617 5.22838L15.995 5.6513C16.1731 5.76362 16.4024 5.75233 16.5687 5.62306L16.2617 5.22838ZM18.0104 3.86826L18.364 3.51471C18.1857 3.3364 17.9025 3.31877 17.7034 3.47359L18.0104 3.86826ZM20.1317 5.98958L20.5264 6.29655C20.6812 6.09751 20.6636 5.81434 20.4853 5.63603L20.1317 5.98958ZM18.7716 7.73831L18.3769 7.43134C18.2477 7.59754 18.2364 7.82693 18.3487 8.00503L18.7716 7.73831ZM19.8025 10.2253L19.3148 10.3358C19.3613 10.5411 19.5315 10.6953 19.7404 10.7214L19.8025 10.2253ZM22 10.5H22.5C22.5 10.2478 22.3122 10.0351 22.062 10.0039L22 10.5ZM22 13.5L22.062 13.9961C22.3122 13.9649 22.5 13.7522 22.5 13.5H22ZM19.8025 13.7747L19.7404 13.2786C19.5315 13.3047 19.3613 13.4589 19.3148 13.6642L19.8025 13.7747ZM18.7716 16.2617L18.3487 15.995C18.2364 16.1731 18.2477 16.4025 18.3769 16.5687L18.7716 16.2617ZM20.1317 18.0104L20.4853 18.364C20.6636 18.1857 20.6812 17.9025 20.5264 17.7034L20.1317 18.0104ZM18.0104 20.1317L17.7034 20.5264C17.9025 20.6812 18.1857 20.6636 18.364 20.4853L18.0104 20.1317ZM16.2617 18.7716L16.5687 18.3769C16.4024 18.2477 16.1731 18.2364 15.995 18.3487L16.2617 18.7716ZM13.7747 19.8025L13.6642 19.3148C13.4589 19.3613 13.3047 19.5315 13.2786 19.7404L13.7747 19.8025ZM13.5 22V22.5C13.7522 22.5 13.9649 22.3122 13.9961 22.062L13.5 22ZM10.5 22L10.0039 22.062C10.0351 22.3122 10.2478 22.5 10.5 22.5V22ZM10.2253 19.8025L10.7214 19.7404C10.6953 19.5315 10.5411 19.3613 10.3358 19.3148L10.2253 19.8025ZM7.73832 18.7716L8.00504 18.3487C7.82694 18.2364 7.59756 18.2477 7.43135 18.3769L7.73832 18.7716ZM5.98959 20.1317L5.63604 20.4853C5.81435 20.6636 6.09752 20.6812 6.29656 20.5264L5.98959 20.1317ZM3.86827 18.0104L3.4736 17.7034C3.31878 17.9025 3.33641 18.1857 3.51472 18.364L3.86827 18.0104ZM5.22839 16.2617L5.62307 16.5687C5.75234 16.4025 5.76363 16.1731 5.65131 15.995L5.22839 16.2617ZM4.19754 13.7747L4.68519 13.6642C4.63867 13.4589 4.46849 13.3047 4.25955 13.2786L4.19754 13.7747ZM2 13.5H1.5C1.5 13.7522 1.68777 13.9649 1.93798 13.9961L2 13.5ZM2 10.5L1.93798 10.0039C1.68777 10.0351 1.5 10.2478 1.5 10.5H2ZM4.19754 10.2253L4.25955 10.7214C4.46849 10.6953 4.63867 10.5411 4.68519 10.3358L4.19754 10.2253ZM5.22839 7.73831L5.65131 8.00503C5.76363 7.82693 5.75234 7.59755 5.62307 7.43134L5.22839 7.73831ZM3.86827 5.98959L3.51472 5.63603C3.33641 5.81434 3.31878 6.09751 3.47359 6.29656L3.86827 5.98959ZM5.98959 3.86827L6.29656 3.47359C6.09752 3.31878 5.81434 3.33641 5.63604 3.51471L5.98959 3.86827ZM7.73832 5.22839L7.43135 5.62306C7.59755 5.75233 7.82694 5.76363 8.00504 5.6513L7.73832 5.22839ZM10.2253 4.19754L10.3358 4.68519C10.5411 4.63867 10.6953 4.46849 10.7214 4.25955L10.2253 4.19754ZM13.5 1.5H10.5V2.5H13.5V1.5ZM14.2708 4.13552L13.9961 1.93798L13.0039 2.06202L13.2786 4.25955L14.2708 4.13552ZM16.5284 4.80547C15.7279 4.30059 14.8369 3.92545 13.8851 3.70989L13.6642 4.68519C14.503 4.87517 15.2886 5.20583 15.995 5.6513L16.5284 4.80547ZM16.5687 5.62306L18.3174 4.26294L17.7034 3.47359L15.9547 4.83371L16.5687 5.62306ZM17.6569 4.22182L19.7782 6.34314L20.4853 5.63603L18.364 3.51471L17.6569 4.22182ZM19.7371 5.68261L18.3769 7.43134L19.1663 8.04528L20.5264 6.29655L19.7371 5.68261ZM20.2901 10.1149C20.0746 9.16313 19.6994 8.27213 19.1945 7.47158L18.3487 8.00503C18.7942 8.71138 19.1248 9.49695 19.3148 10.3358L20.2901 10.1149ZM22.062 10.0039L19.8645 9.72917L19.7404 10.7214L21.938 10.9961L22.062 10.0039ZM22.5 13.5V10.5H21.5V13.5H22.5ZM19.8645 14.2708L22.062 13.9961L21.938 13.0039L19.7404 13.2786L19.8645 14.2708ZM19.1945 16.5284C19.6994 15.7279 20.0746 14.8369 20.2901 13.8851L19.3148 13.6642C19.1248 14.503 18.7942 15.2886 18.3487 15.995L19.1945 16.5284ZM20.5264 17.7034L19.1663 15.9547L18.3769 16.5687L19.7371 18.3174L20.5264 17.7034ZM18.364 20.4853L20.4853 18.364L19.7782 17.6569L17.6569 19.7782L18.364 20.4853ZM15.9547 19.1663L17.7034 20.5264L18.3174 19.7371L16.5687 18.3769L15.9547 19.1663ZM13.8851 20.2901C14.8369 20.0746 15.7279 19.6994 16.5284 19.1945L15.995 18.3487C15.2886 18.7942 14.503 19.1248 13.6642 19.3148L13.8851 20.2901ZM13.9961 22.062L14.2708 19.8645L13.2786 19.7404L13.0039 21.938L13.9961 22.062ZM10.5 22.5H13.5V21.5H10.5V22.5ZM9.72917 19.8645L10.0039 22.062L10.9961 21.938L10.7214 19.7404L9.72917 19.8645ZM7.4716 19.1945C8.27214 19.6994 9.16314 20.0746 10.1149 20.2901L10.3358 19.3148C9.49696 19.1248 8.71139 18.7942 8.00504 18.3487L7.4716 19.1945ZM6.29656 20.5264L8.04529 19.1663L7.43135 18.3769L5.68262 19.7371L6.29656 20.5264ZM3.51472 18.364L5.63604 20.4853L6.34315 19.7782L4.22183 17.6569L3.51472 18.364ZM4.83372 15.9547L3.4736 17.7034L4.26295 18.3174L5.62307 16.5687L4.83372 15.9547ZM3.70989 13.8851C3.92545 14.8369 4.30059 15.7279 4.80547 16.5284L5.65131 15.995C5.20584 15.2886 4.87517 14.503 4.68519 13.6642L3.70989 13.8851ZM1.93798 13.9961L4.13552 14.2708L4.25955 13.2786L2.06202 13.0039L1.93798 13.9961ZM1.5 10.5V13.5H2.5V10.5H1.5ZM4.13552 9.72917L1.93798 10.0039L2.06202 10.9961L4.25955 10.7214L4.13552 9.72917ZM4.80547 7.47159C4.30059 8.27213 3.92545 9.16313 3.70989 10.1149L4.68519 10.3358C4.87517 9.49696 5.20583 8.71138 5.65131 8.00503L4.80547 7.47159ZM3.47359 6.29656L4.83371 8.04528L5.62307 7.43134L4.26295 5.68262L3.47359 6.29656ZM5.63604 3.51471L3.51472 5.63603L4.22182 6.34314L6.34314 4.22182L5.63604 3.51471ZM8.04529 4.83371L6.29656 3.47359L5.68262 4.26294L7.43135 5.62306L8.04529 4.83371ZM10.1149 3.70989C9.16313 3.92545 8.27214 4.30059 7.4716 4.80547L8.00504 5.6513C8.71139 5.20583 9.49696 4.87517 10.3358 4.68519L10.1149 3.70989ZM10.0039 1.93798L9.72917 4.13552L10.7214 4.25955L10.9961 2.06202L10.0039 1.93798Z" fill="#000000"/>
      <circle cx="12" cy="12" r="4" stroke="#000000" stroke-linejoin="round"/>
    </symbol>
    <symbol id="minus" viewBox="0 0 24 24" fill="none">
      <rect width="24" height="24" fill="white"/>
      <path d="M6 12H18" stroke="#000000" stroke-linecap="round" stroke-linejoin="round"/>
    </symbol>
    <symbol id="user" viewBox="0 0 16 16" fill="#000000">
      <path d="M7.763 2A6.77 6.77 0 0 0 1 8.763c0 1.807.703 3.505 1.98 4.782a6.718 6.718 0 0 0 4.783 1.981 6.77 6.77 0 0 0 6.763-6.763A6.77 6.77 0 0 0 7.763 2ZM3.675 13.501a5.094 5.094 0 0 1 3.958-1.989c.024.001.047.007.071.007h.023c.022 0 .042-.006.064-.007a5.087 5.087 0 0 1 3.992 2.046 6.226 6.226 0 0 1-4.02 1.468 6.212 6.212 0 0 1-4.088-1.525zm4.032-2.494c-.025 0-.049.004-.074.005a2.243 2.243 0 0 1-2.167-2.255 2.246 2.246 0 0 1 2.262-2.238 2.246 2.246 0 0 1 2.238 2.262c0 1.212-.97 2.197-2.174 2.232-.028-.001-.056-.006-.085-.006Zm4.447 2.215a5.594 5.594 0 0 0-3.116-2.052 2.749 2.749 0 0 0 1.428-2.412A2.747 2.747 0 0 0 7.704 6.02a2.747 2.747 0 0 0-2.738 2.762 2.73 2.73 0 0 0 1.422 2.386 5.602 5.602 0 0 0-3.081 1.995 6.22 6.22 0 0 1-1.806-4.398 6.27 6.27 0 0 1 6.263-6.263 6.27 6.27 0 0 1 6.263 6.263 6.247 6.247 0 0 1-1.873 4.457z" />
    </symbol>
    <symbol id="telegram" viewBox="0 0 50 50" fill="#000000">
      <path d="M 44.376953 5.9863281 C 43.889905 6.0076957 43.415817 6.1432497 42.988281 6.3144531 C 42.565113 6.4845113 40.128883 7.5243408 36.53125 9.0625 C 32.933617 10.600659 28.256963 12.603668 23.621094 14.589844 C 14.349356 18.562196 5.2382813 22.470703 5.2382812 22.470703 L 5.3046875 22.445312 C 5.3046875 22.445312 4.7547875 22.629122 4.1972656 23.017578 C 3.9185047 23.211806 3.6186028 23.462555 3.3730469 23.828125 C 3.127491 24.193695 2.9479735 24.711788 3.015625 25.259766 C 3.2532479 27.184511 5.2480469 27.730469 5.2480469 27.730469 L 5.2558594 27.734375 L 14.158203 30.78125 C 14.385177 31.538434 16.858319 39.792923 17.402344 41.541016 C 17.702797 42.507484 17.984013 43.064995 18.277344 43.445312 C 18.424133 43.635633 18.577962 43.782915 18.748047 43.890625 C 18.815627 43.933415 18.8867 43.965525 18.957031 43.994141 C 18.958531 43.994806 18.959437 43.99348 18.960938 43.994141 C 18.969579 43.997952 18.977708 43.998295 18.986328 44.001953 L 18.962891 43.996094 C 18.979231 44.002694 18.995359 44.013801 19.011719 44.019531 C 19.043456 44.030655 19.062905 44.030268 19.103516 44.039062 C 20.123059 44.395042 20.966797 43.734375 20.966797 43.734375 L 21.001953 43.707031 L 26.470703 38.634766 L 35.345703 45.554688 L 35.457031 45.605469 C 37.010484 46.295216 38.415349 45.910403 39.193359 45.277344 C 39.97137 44.644284 40.277344 43.828125 40.277344 43.828125 L 40.310547 43.742188 L 46.832031 9.7519531 C 46.998903 8.9915162 47.022612 8.334202 46.865234 7.7402344 C 46.707857 7.1462668 46.325492 6.6299361 45.845703 6.34375 C 45.365914 6.0575639 44.864001 5.9649605 44.376953 5.9863281 z M 44.429688 8.0195312 C 44.627491 8.0103707 44.774102 8.032983 44.820312 8.0605469 C 44.866523 8.0881109 44.887272 8.0844829 44.931641 8.2519531 C 44.976011 8.419423 45.000036 8.7721605 44.878906 9.3242188 L 44.875 9.3359375 L 38.390625 43.128906 C 38.375275 43.162926 38.240151 43.475531 37.931641 43.726562 C 37.616914 43.982653 37.266874 44.182554 36.337891 43.792969 L 26.632812 36.224609 L 26.359375 36.009766 L 26.353516 36.015625 L 23.451172 33.837891 L 39.761719 14.648438 A 1.0001 1.0001 0 0 0 38.974609 13 A 1.0001 1.0001 0 0 0 38.445312 13.167969 L 14.84375 28.902344 L 5.9277344 25.849609 C 5.9277344 25.849609 5.0423771 25.356927 5 25.013672 C 4.99765 24.994652 4.9871961 25.011869 5.0332031 24.943359 C 5.0792101 24.874869 5.1948546 24.759225 5.3398438 24.658203 C 5.6298218 24.456159 5.9609375 24.333984 5.9609375 24.333984 L 5.9941406 24.322266 L 6.0273438 24.308594 C 6.0273438 24.308594 15.138894 20.399882 24.410156 16.427734 C 29.045787 14.44166 33.721617 12.440122 37.318359 10.902344 C 40.914175 9.3649615 43.512419 8.2583658 43.732422 8.1699219 C 43.982886 8.0696253 44.231884 8.0286918 44.429688 8.0195312 z M 33.613281 18.792969 L 21.244141 33.345703 L 21.238281 33.351562 A 1.0001 1.0001 0 0 0 21.183594 33.423828 A 1.0001 1.0001 0 0 0 21.128906 33.507812 A 1.0001 1.0001 0 0 0 20.998047 33.892578 A 1.0001 1.0001 0 0 0 20.998047 33.900391 L 19.386719 41.146484 C 19.35993 41.068197 19.341173 41.039555 19.3125 40.947266 L 19.3125 40.945312 C 18.800713 39.30085 16.467362 31.5161 16.144531 30.439453 L 33.613281 18.792969 z M 22.640625 35.730469 L 24.863281 37.398438 L 21.597656 40.425781 L 22.640625 35.730469 z"/>
    </symbol>
    <symbol id="instagram" viewBox="0 0 50 50" fill="#000000">
      <path d="M 16 3 C 8.8324839 3 3 8.8324839 3 16 L 3 34 C 3 41.167516 8.8324839 47 16 47 L 34 47 C 41.167516 47 47 41.167516 47 34 L 47 16 C 47 8.8324839 41.167516 3 34 3 L 16 3 z M 16 5 L 34 5 C 40.086484 5 45 9.9135161 45 16 L 45 34 C 45 40.086484 40.086484 45 34 45 L 16 45 C 9.9135161 45 5 40.086484 5 34 L 5 16 C 5 9.9135161 9.9135161 5 16 5 z M 37 11 A 2 2 0 0 0 35 13 A 2 2 0 0 0 37 15 A 2 2 0 0 0 39 13 A 2 2 0 0 0 37 11 z M 25 14 C 18.936712 14 14 18.936712 14 25 C 14 31.063288 18.936712 36 25 36 C 31.063288 36 36 31.063288 36 25 C 36 18.936712 31.063288 14 25 14 z M 25 16 C 29.982407 16 34 20.017593 34 25 C 34 29.982407 29.982407 34 25 34 C 20.017593 34 16 29.982407 16 25 C 16 20.017593 20.017593 16 25 16 z"/>
    </symbol>
    <symbol id="cake" viewBox="0 0 64 64" >
      <defs>
        <style>.cls-1{fill:#1b1c20;}.cls-2{fill:#ffffff;}</style>
      </defs><title/>
      <path class="cls-1" d="M10.55,34.48a1.29,1.29,0,0,1-.83-2.29L22.07,21.86a1.32,1.32,0,0,1,.62-.29c.75-.12,18.59-2.95,29.78,3.3a1.3,1.3,0,0,1-.41,2.41L10.77,34.46A.82.82,0,0,1,10.55,34.48Zm12.9-10.4-8.36,7,32.3-5.62C37.93,22.23,25.65,23.77,23.45,24.08Z"/><path class="cls-1" d="M10.55,56.06a1.28,1.28,0,0,1-.82-.29,1.32,1.32,0,0,1-.48-1V33.19a1.3,1.3,0,1,1,2.59,0v20l38.7-8V26a1.3,1.3,0,1,1,2.59,0V46.19a1.29,1.29,0,0,1-1,1.27L10.81,56A1.15,1.15,0,0,1,10.55,56.06Z"/><path class="cls-1" d="M10.55,43.09a1.3,1.3,0,0,1-.24-2.57L51.6,33a1.3,1.3,0,0,1,.47,2.56L10.78,43.07A.93.93,0,0,1,10.55,43.09Z"/><path class="cls-1" d="M10.55,47.92a1.3,1.3,0,0,1-.24-2.58L51.6,37.8a1.3,1.3,0,1,1,.47,2.55L10.78,47.89Z"/><path class="cls-2" d="M36.15,22.16a3.59,3.59,0,1,1-3.59-3.59A3.59,3.59,0,0,1,36.15,22.16Z"/><path class="cls-1" d="M32.56,27a4.89,4.89,0,1,1,4.89-4.88A4.89,4.89,0,0,1,32.56,27Zm0-7.18a2.3,2.3,0,1,0,2.3,2.3A2.3,2.3,0,0,0,32.56,19.86Z"/><path class="cls-1" d="M32.63,19.86h-.15a1.3,1.3,0,0,1-1.14-1.44c.75-6.72,3.9-11,9.38-12.69a1.3,1.3,0,0,1,.77,2.48C37,9.59,34.55,13,33.91,18.71A1.29,1.29,0,0,1,32.63,19.86Z"/>
    </symbol>
    <symbol id="muffin" viewBox="0 0 512 512" >
      <circle style="fill:#FFD15D;" cx="256" cy="256" r="256"/>
      <path style="fill:#F9B54C;" d="M293.61,509.243c98.549-14.51,178.817-85.168,207.274-178.436L354.113,184.036l-1.545,2.084
        l-74.911-74.911l-4.418,124.104l-85.957,167.603L293.61,509.243z"/>
      <ellipse style="fill:#FF80AA;" cx="256" cy="227.538" rx="117.226" ry="79.489"/>
      <path style="fill:#FF6472;" d="M256,148.054c-0.193,0-0.381,0.009-0.574,0.01v158.958c0.193,0,0.381,0.01,0.574,0.01
        c64.741,0,117.226-35.588,117.226-79.489S320.741,148.054,256,148.054z"/>
      <path style="fill:#935635;" d="M307.159,411.027H204.84c-11.002,0-20.475-7.766-22.631-18.554l-24.321-121.608h196.225
        l-24.321,121.608C327.633,403.261,318.161,411.027,307.159,411.027z"/>
      <path style="fill:#804000;" d="M255.426,270.865v140.16h51.733c11.002,0,20.475-7.766,22.631-18.554l24.321-121.608h-98.685V270.865
        z"/>
      <circle style="fill:#C1321F;" cx="256" cy="129.005" r="28.032"/>
      <path style="fill:#A82116;" d="M256,100.974c-0.193,0-0.381,0.024-0.574,0.029v56.006c0.193,0.003,0.381,0.029,0.574,0.029
        c15.482,0,28.032-12.55,28.032-28.032S271.482,100.974,256,100.974z"/>
    </symbol>
  </defs>
</svg>